<?xml version="1.0" standalone="no"?><!DOCTYPE svg PUBLIC "-//W3C//DTD SVG 1.1//EN" "http://www.w3.org/Graphics/SVG/1.1/DTD/svg11.dtd"><svg class="icon" width="25px" height="25px" viewBox="0 0 1024 1024" version="1.1" xmlns="http://www.w3.org/2000/svg"><path fill="#707070" d="M928 560H608a48 48 0 0 0-48 48v320a48 48 0 0 0 48 48h320a48 48 0 0 0 48-48V608a48 48 0 0 0-48-48z m-48 320H656V656h224v224zM416 560H96a48 48 0 0 0-48 48v320a48 48 0 0 0 48 48h320a48 48 0 0 0 48-48V608a48 48 0 0 0-48-48z m-48 320H144V656h224v224zM928 48H608a48 48 0 0 0-48 48v320a48 48 0 0 0 48 48h320a48 48 0 0 0 48-48V96a48 48 0 0 0-48-48z m-48 320H656V144h224v224zM416 48H96a48 48 0 0 0-48 48v320a48 48 0 0 0 48 48h320a48 48 0 0 0 48-48V96a48 48 0 0 0-48-48z m-48 320H144V144h224v224z"  /></svg>