<?xml version="1.0" standalone="no"?><!DOCTYPE svg PUBLIC "-//W3C//DTD SVG 1.1//EN" "http://www.w3.org/Graphics/SVG/1.1/DTD/svg11.dtd"><svg t="1684980956637" class="icon" viewBox="0 0 1024 1024" version="1.1" xmlns="http://www.w3.org/2000/svg" p-id="6838" xmlns:xlink="http://www.w3.org/1999/xlink" width="32" height="32"><path d="M961.792 439.594667l-3.797333-23.978667-73.301334-24.533333a387.413333 387.413333 0 0 0-23.893333-57.685334l34.56-69.12-14.165333-19.797333a467.285333 467.285333 0 0 0-102.314667-102.101333l-19.669333-14.165334-69.12 34.56a391.850667 391.850667 0 0 0-57.685334-23.893333l-24.405333-73.088-23.808-3.712A452.48 452.48 0 0 0 512 55.893333c-22.186667 0-45.226667 2.005333-72.32 6.314667l-23.978667 3.797333-24.405333 73.386667a405.802667 405.802667 0 0 0-57.685333 23.808l-68.992-34.688-19.712 14.208a458.325333 458.325333 0 0 0-102.186667 102.058667l-14.208 19.84 34.56 69.12c-9.386667 18.474667-17.365333 37.76-23.765333 57.6l-73.301334 24.277333-3.84 23.978667A459.690667 459.690667 0 0 0 56.064 512c0 22.4 1.962667 45.994667 6.186667 72.32l3.797333 23.978667 73.301333 24.490666c6.4 19.797333 14.378667 39.210667 23.893334 57.728l-34.389334 68.864 14.208 19.626667c14.762667 20.608 30.08 38.698667 46.677334 55.381333 15.488 15.616 33.621333 30.890667 55.296 46.805334l19.712 14.208 68.992-34.602667c18.602667 9.514667 37.888 17.578667 57.685333 23.893333l24.405333 73.386667 24.021334 3.84c26.282667 4.181333 49.92 6.186667 72.192 6.186667 22.314667 0 45.909333-2.005333 72.32-6.186667l23.978666-3.84 24.405334-73.386667c19.626667-6.4 38.912-14.378667 57.6-23.808l69.12 34.602667 19.669333-14.208a423.765333 423.765333 0 0 0 55.296-46.762667c16.298667-16.298667 31.530667-34.517333 46.72-55.424l14.208-19.797333-34.602667-69.12c9.472-18.474667 17.493333-37.76 23.893334-57.685333l73.301333-24.490667 3.797333-24.021333c4.181333-26.282667 6.186667-49.877333 6.186667-72.192a404.821333 404.821333 0 0 0-6.101333-72.192z m-65.493333 71.594666v0.512c0 13.482667-0.896 27.178667-2.56 41.898667l-35.413334 11.818667-31.317333 10.581333-9.728 31.488c-5.461333 18.218667-12.8 35.925333-21.674667 52.693333l-15.402666 29.098667 31.402666 62.72a362.709333 362.709333 0 0 1-27.818666 31.402667l-0.170667 0.213333c-9.301333 9.386667-19.626667 18.474667-31.232 27.562667l-62.464-31.274667-29.013333 15.104c-17.066667 8.874667-35.114667 16.298667-53.418667 22.101333l-31.274667 9.813334-10.24 30.976-11.776 35.413333a340.053333 340.053333 0 0 1-83.797333 0l-11.818667-35.413333-10.282666-31.317334-31.488-9.685333a300.416 300.416 0 0 1-52.693334-21.717333l-29.226666-15.189334-29.482667 14.72-33.28 16.597334a362.709333 362.709333 0 0 1-31.445333-27.818667 355.328 355.328 0 0 1-27.776-31.402667l31.189333-62.506666-15.189333-29.013334a307.456 307.456 0 0 1-21.888-52.949333l-9.728-31.530667-66.56-22.101333a340.053333 340.053333 0 0 1 0-83.797333l66.389333-22.101334 9.685333-31.402666c5.589333-18.090667 13.013333-35.968 21.888-53.162667l15.189334-29.013333-14.592-29.312-16.597334-33.28c17.493333-21.802667 37.418667-41.728 59.221334-59.221334l62.592 31.317334 29.098666-15.317334c16.810667-8.789333 34.688-16.213333 53.205334-21.973333l31.274666-9.813333 10.410667-31.146667 11.818667-35.370667c15.104-1.706667 28.8-2.56 41.813333-2.56 13.354667 0 27.178667 0.853333 41.770667 2.56l22.186666 66.304 31.317334 9.685334c18.218667 5.717333 36.096 13.141333 53.205333 21.930666l29.013333 15.189334 62.464-31.317334c21.802667 17.493333 41.813333 37.418667 59.52 59.306667l-31.189333 62.506667 14.976 28.885333c8.917333 17.237333 16.426667 35.2 22.101333 53.504l9.813334 31.317333 31.104 10.410667 35.413333 11.776c1.877333 15.018667 2.688 28.501333 2.474667 41.301333z m-384.085334-173.482666A174.506667 174.506667 0 0 0 337.92 512a174.506667 174.506667 0 0 0 174.293333 174.293333A174.506667 174.506667 0 0 0 686.506667 512a174.506667 174.506667 0 0 0-174.293334-174.293333z m72.277334 246.613333a101.674667 101.674667 0 0 1-72.277334 29.994667c-27.306667 0-53.034667-10.624-72.32-29.994667A101.674667 101.674667 0 0 1 409.898667 512c0-27.306667 10.581333-52.992 29.994666-72.32a101.674667 101.674667 0 0 1 72.32-29.994667c27.306667 0 52.992 10.624 72.277334 29.994667 19.328 19.413333 29.994667 45.013333 29.994666 72.32 0 27.306667-10.666667 52.992-29.994666 72.32z" fill="#000000" opacity=".65" p-id="6839"></path></svg>