<?xml version="1.0" standalone="no"?><!DOCTYPE svg PUBLIC "-//W3C//DTD SVG 1.1//EN" "http://www.w3.org/Graphics/SVG/1.1/DTD/svg11.dtd"><svg class="icon" width="25px" height="25px" viewBox="0 0 1024 1024" version="1.1" xmlns="http://www.w3.org/2000/svg"><path fill="#707070" d="M967.111111 56.888889H398.222222a56.888889 56.888889 0 0 0-56.888889 56.888889v170.666666H56.888889a56.888889 56.888889 0 0 0-56.888889 56.888889v568.888889a56.888889 56.888889 0 0 0 56.888889 56.888889h568.888889a56.888889 56.888889 0 0 0 56.888889-56.888889v-170.666666h284.444444a56.888889 56.888889 0 0 0 56.888889-56.888889V113.777778a56.888889 56.888889 0 0 0-56.888889-56.888889zM568.888889 824.888889a28.444444 28.444444 0 0 1-28.444445 28.444444H142.222222a28.444444 28.444444 0 0 1-28.444444-28.444444V426.666667a28.444444 28.444444 0 0 1 28.444444-28.444445h398.222222a28.444444 28.444444 0 0 1 28.444445 28.444445v398.222222z m341.333333-227.555556a28.444444 28.444444 0 0 1-28.444444 28.444445h-199.111111V341.333333a56.888889 56.888889 0 0 0-56.888889-56.888889h-170.666667V199.111111a28.444444 28.444444 0 0 1 28.444445-28.444444h398.222222a28.444444 28.444444 0 0 1 28.444444 28.444444v398.222222z" /></svg>